<?xml version="1.0" encoding="UTF-8"?>
<svg xmlns="http://www.w3.org/2000/svg" width="28" height="27" viewBox="0 0 28 27" fill="none">
  <path d="M13.7408 13.1467C11.8627 13.1467 10.255 12.5031 8.91754 11.2158C7.58012 9.9285 6.91141 8.38103 6.91141 6.57335C6.91141 4.76568 7.58012 3.2182 8.91754 1.93092C10.255 0.643641 11.8627 0 13.7408 0C15.6189 0 17.2266 0.643641 18.564 1.93092C19.9015 3.2182 20.5702 4.76568 20.5702 6.57335C20.5702 8.38103 19.9015 9.9285 18.564 11.2158C17.2266 12.5031 15.6189 13.1467 13.7408 13.1467ZM0.0820312 26.2934V21.6921C0.0820312 20.7608 0.331304 19.9047 0.829848 19.1235C1.32725 18.3435 1.98857 17.7481 2.81378 17.3372C4.57804 16.4882 6.37075 15.8511 8.19192 15.426C10.0131 15.002 11.8627 14.79 13.7408 14.79C15.6189 14.79 17.4685 15.002 19.2897 15.426C21.1108 15.8511 22.9035 16.4882 24.6678 17.3372C25.493 17.7481 26.1543 18.3435 26.6517 19.1235C27.1503 19.9047 27.3995 20.7608 27.3995 21.6921V26.2934H0.0820312Z" fill="white"></path>
</svg>
