<?xml version="1.0" encoding="UTF-8"?>
<svg xmlns="http://www.w3.org/2000/svg" width="29" height="37" viewBox="0 0 29 37" fill="none">
  <path d="M3.625 36.25C2.62812 36.25 1.77504 35.8954 1.06575 35.1861C0.35525 34.4756 0 33.6219 0 32.625V10.875C0 9.87813 0.35525 9.02505 1.06575 8.31576C1.77504 7.60526 2.62812 7.25001 3.625 7.25001H7.25C7.25 5.25625 7.9599 3.54948 9.37969 2.12969C10.7995 0.709896 12.5063 0 14.5 0C16.4937 0 18.2005 0.709896 19.6203 2.12969C21.0401 3.54948 21.75 5.25625 21.75 7.25001H25.375C26.3719 7.25001 27.2256 7.60526 27.9361 8.31576C28.6454 9.02505 29 9.87813 29 10.875V32.625C29 33.6219 28.6454 34.4756 27.9361 35.1861C27.2256 35.8954 26.3719 36.25 25.375 36.25H3.625ZM9.0625 16.3125C9.57604 16.3125 10.0068 16.1385 10.3548 15.7905C10.7016 15.4437 10.875 15.0136 10.875 14.5V10.875H7.25V14.5C7.25 15.0136 7.424 15.4437 7.772 15.7905C8.11879 16.1385 8.54896 16.3125 9.0625 16.3125ZM10.875 7.25001H18.125C18.125 6.25313 17.7704 5.40005 17.0611 4.69075C16.3506 3.98025 15.4969 3.625 14.5 3.625C13.5031 3.625 12.65 3.98025 11.9408 4.69075C11.2303 5.40005 10.875 6.25313 10.875 7.25001ZM19.9375 16.3125C20.451 16.3125 20.8818 16.1385 21.2298 15.7905C21.5766 15.4437 21.75 15.0136 21.75 14.5V10.875H18.125V14.5C18.125 15.0136 18.299 15.4437 18.647 15.7905C18.9938 16.1385 19.424 16.3125 19.9375 16.3125Z" fill="black"></path>
</svg>
