<?xml version="1.0" encoding="UTF-8"?>
<svg xmlns="http://www.w3.org/2000/svg" id="uuid-65241032-4b47-43a2-b736-18084455aebb" viewBox="0 0 111.69 66.9">
  <defs>
    <style>.uuid-5bb84449-1de3-47a5-abf2-36d9ea5c3ada{fill:#676867;}.uuid-794800c0-4dca-4e4b-bc17-4a9a6898d7cc{fill:#feffff;}</style>
  </defs>
  <g id="uuid-0309923b-e020-4982-aa30-e7dc1a7b2818">
    <g>
      <polygon points="29.68 27.29 29.75 27.18 31.52 25.34 32.27 25.34 30.48 27.19 32.37 29.66 31.64 29.66 30.06 27.56 29.69 27.92 29.7 29.66 29.1 29.66 29.1 25.34 29.7 25.34 29.7 27.08 29.68 27.29"></polygon>
      <path d="m36.66,28.02l-.62-1.58-.64,1.58h1.26Zm.2.5h-1.66l-.46,1.14h-.57l1.89-4.51h.04l1.89,4.51h-.67l-.45-1.14Z"></path>
      <path d="m42.07,27.26c.14-.16.21-.35.21-.56,0-.13-.03-.25-.09-.38-.06-.12-.15-.23-.28-.31-.13-.08-.28-.12-.48-.12h-.67v1.62h.63c.31,0,.54-.08.67-.25m.5,2.4l-1.02-1.6s-.08,0-.14,0h-.64v1.59h-.58v-4.33h1.15c.3,0,.56.05.79.16.23.1.41.26.54.46.13.2.2.44.2.73,0,.27-.06.51-.18.74-.12.22-.3.39-.54.51l1.09,1.74h-.68Z"></path>
      <polygon points="49.86 25.2 49.86 29.66 49.28 29.66 49.28 26.86 47.69 29.12 47.68 29.12 46.12 26.94 46.12 29.66 45.55 29.66 45.55 25.2 45.56 25.2 47.69 28.21 49.85 25.2 49.86 25.2"></polygon>
      <rect x="52.51" y="25.34" width=".58" height="4.33"></rect>
      <polygon points="59.52 25.34 59.52 29.81 59.5 29.81 56.32 26.58 56.34 29.66 55.75 29.66 55.75 25.21 55.78 25.21 58.95 28.47 58.94 25.34 59.52 25.34"></polygon>
      <path d="m52,35.87c.13-.09.22-.19.28-.32.06-.13.08-.25.08-.37,0-.21-.07-.39-.2-.55-.14-.16-.35-.24-.63-.24h-.67v1.62h.64c.21,0,.38-.04.51-.13m.54-1.69c.27.24.4.56.4.99,0,.24-.05.47-.15.68-.1.21-.26.38-.47.51-.22.13-.49.2-.82.2h-.64v1.59h-.58v-4.33h1.16c.47,0,.84.12,1.1.35"></path>
      <path d="m57.12,35.76c.14-.16.21-.35.21-.56,0-.13-.03-.25-.09-.38-.06-.12-.15-.23-.28-.31-.13-.08-.28-.12-.48-.12h-.67v1.62h.63c.31,0,.54-.08.67-.25m.5,2.4l-1.02-1.6s-.08,0-.14,0h-.64v1.59h-.58v-4.33h1.15c.3,0,.56.05.79.16.23.1.41.26.54.46.13.2.2.44.2.73,0,.27-.06.51-.18.74-.12.22-.3.39-.54.51l1.09,1.74h-.68Z"></path>
      <path d="m61.05,36.83c.14.25.34.45.59.6.25.15.52.22.82.22s.57-.07.81-.22c.25-.15.44-.35.58-.6.14-.25.21-.53.21-.83s-.07-.58-.22-.83c-.14-.26-.34-.46-.59-.6-.25-.15-.52-.22-.81-.22s-.57.07-.81.22c-.25.15-.44.35-.58.61-.14.26-.21.53-.21.83s.07.57.22.82m-.51-1.93c.2-.34.47-.61.8-.81.34-.2.71-.3,1.1-.3s.76.1,1.1.3c.34.2.61.47.81.81.2.34.3.71.3,1.1s-.1.77-.3,1.11c-.2.34-.47.61-.81.8-.34.2-.71.3-1.1.3s-.77-.1-1.11-.29c-.34-.2-.61-.46-.8-.8-.2-.34-.3-.71-.3-1.12s.1-.76.3-1.1"></path>
      <polygon points="69.61 33.83 69.61 34.39 67.63 34.39 67.63 35.77 69.37 35.77 69.37 36.32 67.63 36.32 67.63 38.16 67.05 38.16 67.05 33.83 69.61 33.83"></polygon>
      <polygon points="74.8 33.83 74.8 34.39 72.56 34.39 72.56 35.71 74.56 35.71 74.56 36.26 72.56 36.26 72.56 37.6 74.88 37.6 74.88 38.16 71.98 38.16 71.98 33.83 74.8 33.83"></polygon>
      <path d="m79.04,34.4c-.18-.05-.34-.08-.5-.08-.24,0-.42.05-.56.16-.14.11-.21.25-.21.43s.08.33.24.44c.16.11.39.23.69.34.22.08.41.17.57.26.15.09.28.22.38.39.1.17.15.38.15.63,0,.23-.06.44-.17.63-.12.19-.28.34-.49.44-.21.11-.46.16-.75.16-.27,0-.52-.04-.77-.13-.25-.09-.46-.19-.65-.33l.26-.46c.15.11.33.21.53.28.21.08.4.12.58.12.23,0,.43-.06.61-.18.17-.12.26-.3.26-.53,0-.2-.07-.36-.22-.48-.15-.12-.35-.23-.61-.33-.24-.09-.45-.18-.61-.27-.16-.09-.3-.21-.42-.36-.12-.15-.17-.35-.17-.58,0-.34.12-.61.36-.82.24-.21.55-.32.92-.33.47,0,.9.12,1.3.35l-.22.45c-.16-.08-.32-.15-.5-.2"></path>
      <path d="m83.94,34.4c-.18-.05-.34-.08-.5-.08-.24,0-.42.05-.56.16-.14.11-.21.25-.21.43s.08.33.24.44c.16.11.39.23.69.34.22.08.41.17.57.26.15.09.28.22.38.39.1.17.15.38.15.63,0,.23-.06.44-.17.63-.12.19-.28.34-.49.44-.21.11-.46.16-.75.16-.27,0-.52-.04-.77-.13-.25-.09-.46-.19-.65-.33l.26-.46c.15.11.33.21.53.28.21.08.4.12.58.12.23,0,.43-.06.61-.18.17-.12.26-.3.26-.53,0-.2-.07-.36-.22-.48-.15-.12-.35-.23-.61-.33-.24-.09-.45-.18-.61-.27-.16-.09-.3-.21-.42-.36-.12-.15-.17-.35-.17-.58,0-.34.12-.61.36-.82.24-.21.55-.32.92-.33.47,0,.9.12,1.3.35l-.22.45c-.16-.08-.32-.15-.5-.2"></path>
      <rect x="87.09" y="33.83" width=".58" height="4.33"></rect>
      <path d="m90.87,36.83c.14.25.34.45.59.6.25.15.52.22.82.22s.57-.07.81-.22c.25-.15.44-.35.58-.6.14-.25.21-.53.21-.83s-.07-.58-.22-.83c-.14-.26-.34-.46-.59-.6-.25-.15-.52-.22-.81-.22s-.57.07-.81.22c-.25.15-.44.35-.58.61-.14.26-.21.53-.21.83s.07.57.21.82m-.51-1.93c.2-.34.47-.61.8-.81.34-.2.7-.3,1.1-.3s.76.1,1.1.3c.34.2.61.47.81.81.2.34.3.71.3,1.1s-.1.77-.3,1.11c-.2.34-.47.61-.81.8-.34.2-.71.3-1.1.3s-.77-.1-1.11-.29c-.34-.2-.61-.46-.81-.8-.2-.34-.3-.71-.3-1.12s.1-.76.3-1.1"></path>
      <polygon points="100.64 33.83 100.64 38.3 100.62 38.3 97.44 35.08 97.46 38.16 96.87 38.16 96.87 33.7 96.9 33.7 100.07 36.96 100.06 33.83 100.64 33.83"></polygon>
      <path d="m105.37,36.52l-.62-1.58-.64,1.58h1.26Zm.2.5h-1.66l-.46,1.14h-.57l1.89-4.51h.04l1.89,4.51h-.67l-.45-1.14Z"></path>
      <polygon points="109.48 33.83 109.48 37.6 111.69 37.6 111.69 38.16 108.9 38.16 108.9 33.83 109.48 33.83"></polygon>
      <path d="m23.56,8.29c-.43-.24-.71-.08-1.14.04.16-.1.29-.23.39-.4-.56-.9-.08-2.34,1.15-2.01.03.76-.67,1.69-.4,2.37m-2.65.39l-.14-.43c-.16.12-.32.27-.46.44-1.04-.56-.91-1.48-.83-2.49.3-.56.61-1.1.87-1.67.61.46,1.19.11,1.88.28.1.83,0,1.68.05,2.51.18.7-.9,1.08-1.38,1.38m-1.8.57c-.39.13-.7-.18-1.08-.26-1-.26-1.4-1.19-2.2-1.88,1.13.41,1.91.16,2.97-.29.52.64.4,1.66.31,2.43m-1.4-2.78c.12.23-.57.69-.76.48-.21-.52.42-.54.76-.48m.64-1.97c.52-.12.9.03,1.33.29-.29.49-.4,1.2-.79,1.6-1.03-.38-.72-1.06-.54-1.89m6.38.92c-.73.01-1.44.14-2.16.25,0-.4,0-.8,0-1.2-.3-.11-.59-.13-.87-.06-.52.19-.95-.3-1.42-.48-.16.07-.31.2-.43.39-.36-.27-.74-.06-1.1-.32-.24-.16-.48-.2-.72-.12-.28.63-.21,1.29-.35,1.94-.56.48-1.78.6-2.23,1.2-.19.59.66.88.95,1.3.51.75,1.59,1.1,2.42,1.36.38.09.53.53.85.54.14-.36.39-.63.66-.9.44-.11.95.02,1.4.09.82-.03,1.72-.34,2.33-.89.81-.75-.34-1.95.51-2.6.17-.12.22-.29.15-.51"></path>
      <path d="m28.93,6.73l.09.24c-.31.14-.75,1.05-1.08.74.05-.41.58-.91.99-.98"></path>
      <path d="m30.69,7.17c.23-.51.61.2.08.39-.3-.06-.32-.19-.08-.39"></path>
      <path d="m34,7.37l.37.02c-.2.55-.54.97-.5,1.59l-.24.06c-.02-.6.14-1.12.36-1.67"></path>
      <path class="uuid-794800c0-4dca-4e4b-bc17-4a9a6898d7cc" d="m19.53,9.08q.11.12,0,0"></path>
      <path d="m40.21,4.77c.18-.34.7-1.23,1.07-.56-.22.62-.21,1.24-.34,1.87-.9.84-2.14.69-2.98,1.7.18-1.32,1.96-1.67,2.24-3.02m2.3,1.69c.16-.19.16-.45.01-.79.21-.08.45-.09.7-.03.05.17-.14.26-.55.26-.09.26.07.4.5.43.11,1.19-.07,2.26-1,3.08-.64.23-1.02-.14-1.69-.19-.5-.3-1.29-.18-1.68-.52-.15-.59,1.43-.41,1.31-.79-.71-.29-1.01.27-1.61.21l.04-.19c1.23-.61,2.54-1.51,3.97-1.48m1.03.85c-.03-.41-.07-1.19.58-.92.48.34,1.06,1.85.05,1.83.1.86-.6,1.45-1.42,1.31.3-.65.88-1.48.79-2.23m-.07,3.79c.28.4.07,1.12.07,1.59-.51-.26-.76-.66-1.4-.57-1.29-.43-2.58-.87-3.29-2.12.28,0,.56-.02.83-.09.07-.27-.12-.4-.56-.4-.22-.35.64-.04.72.09.29.24.8-.03,1.18.2.5.21,1.12-.04,1.61.18.28.39.49.8.85,1.14m-5.3,2.3c-.45-.11-.22-.91-.28-1.26.24-.36.72-1.18,1.06-1.34.21.36.43.71.65,1.06-.28.54-.81,1.4-1.43,1.54m-.52-6.69c-.18-.79-.14-1.77.32-2.47.44-.11.48.51.49.8.24.57,0,1.87-.81,1.66m-2.4,5.92c-.96-.26-2.13-.72-2.95-1.26.94.15,2.38.42,2.95,1.26m-6.12.69c.39-.07.75-.07,1.09.02.17.51-.84.16-1.09.18v-.2Zm7.09-9.14v-.24s.24,0,.24,0v.24s-.24,0-.24,0Zm1.65-2.52c0,.25-.12.49-.33.73-.65-.2-.82.51-1.25.85-.05-.47,1.15-1.65,1.59-1.59m11.67.81c-.98-.39-1.65-1.03-2.78-.93.35-.1.52-.24.5-.43-.43-.16-.72.17-1.14.26-1.21.47-2.47.13-3.73.49l-.26-.15c-.09-.67.52-1,.22-1.69-.16.07-.3.16-.41.28-.56.83-1.17,1.67-1.88,2.38-.52.28-1.09.41-1.64.61-.54.12-1.08.66-1.63.63v-.2c.84-.54,1.29-1.35,1.75-2.22.19-.38.35-.75.12-1.15-.64.28-1.16,1.04-1.79,1.43-1.1.8-1.37,2.18-2.43,2.93-1.16.73-2.44,1.39-3.75,1.81-.19.52.58.51.92.55,1.7-1.06,3.68-1.65,5.44-2.58l.23.04c.17.37-.24.7-.25,1.1-.07.64.23,1.29.39,1.9.43.63-.14,1.46-.76,1.71-.73.32-1.66.79-2.46.72.4-.65,1.01-1.18,1.15-2.04.1-.65.71-1.35.54-2-.37.03-1.34.75-1.37,1.14.26-.02.52-.1.79-.25-.2.92-.7,2.8-1.91,2.83-.26.45-.78.47-1.04.91-.68.05-1.19.52-1.84.79-1.43.77-3.01,1.51-4.62,1.73-.05.21.06.42.32.63,1.11-.24,2.02.29,3.14.23,1.1.49,2.37.18,3.03-.82-1.21.08-2.4-.15-3.63-.1.01-.19.15-.35.4-.47.98-.28,2.01-.75,3.04-.65.95.23,1.67.76,2.58,1.08.48.16,1.06-.05,1.56-.1-.48-.62-1.38-.98-2.04-1.4-.24-.2-1.15-.14-.56-.59,1.22-.32,2.35-.91,3.58-1.17.24.1.49.2.72.31.17.36.28,1.1-.11,1.35-.68.64-.48,1.69-.33,2.51,1.09.18,1.58-.82,2.21-1.5l.13-.52c.55-.22,1.33.51,1.9.59.74.17,1.17.3,1.54,1.01.14-.06.28-.12.43-.19.28-.47.1-.9.22-1.4.33-.71-.94-1.37-.78-1.92.55-.04.78-.3,1.12-.68.03-.24.07-.48.11-.72.76-.33.43-.83.5-1.5-.15-.36-.41-1.13-.87-1.14-.49-.02-.72-.54-1.14-.8-.83-.54-.25-2.26-1.09-2.52l-.41.19c0,.19.16.35.49.49.26.51.14,1.22.25,1.79-.12.45.02,1.05-.61,1.08-.35-.57.29-1.67-.2-2.32-.08-.22-.08-.49,0-.81-.6-.09-.89.82-1.27,1.19-.35.28-.54,1.54-1.08,1.39-.28-.49-.48-1.33-.2-1.82,1.18-.52,2.32-1.05,3.56-1.41.8-.06,1.63-.11,2.26.47.39.35.86.37,1.35.42-.3-.53-1.28-.41-1.32-1.08.79-.4,1.94-.2,2.81-.2,1.13.43,2,1.05,3.29.91.22-.06.35-.16.38-.32-.55-.04-1.1-.06-1.65-.1"></path>
      <path d="m25.96,13.55c.18.44-1.15.3-1.37.25-.24-.55,1.15-.42,1.37-.25"></path>
      <path class="uuid-794800c0-4dca-4e4b-bc17-4a9a6898d7cc" d="m19.8,26.39q.15.15,0,0"></path>
      <rect x="6.12" y="28.61" width=".24" height=".24" transform="translate(-.34 .08) rotate(-.67)"></rect>
      <path class="uuid-5bb84449-1de3-47a5-abf2-36d9ea5c3ada" d="m6.25,30.43s0,0,0,0"></path>
      <path d="m11.99,44.58c.18.14.2,1-.12.94-.17-.15-.21-1,.12-.94"></path>
      <polygon points="14.37 47.65 14.58 47.64 14.58 47.85 14.38 47.86 14.37 47.65"></polygon>
      <path d="m29.32,45.82c-.52.08-.87.44-1.32.6-.25-.24-.87-.45-.9-.8.23-.43.93-.71,1.38-.83.22.26,1.02.63.83,1.03m-1.71,3.14c-.57.27-.66.24-.81.9-.15-.05-.3-.1-.44-.14-.18.83-.54-.02-.92-.19-.57-.53-.66-1.17-.64-1.93.03-.51-.32-1.26.05-1.67,1.15-.16,2.45.07,3.08,1.13-.07.64-.21,1.27-.32,1.9m-1.94,1.71c-.47.05-.91.38-1.38.33-.07-.39.72-.54.99-.65.28-.15.41-.04.39.32m-1.44-.29c-.86.47-2.11.54-3.06.31-.16-.55,1.03-.69,1.39-.8.37,0,1.8-.17,1.67.49m-1.94-2.78c.06-.39-.16-1.33.29-1.5.51.07,1.26.02,1.64.41.31.63.08,1.29.29,1.95,0,.43.38.72.3,1.14-1.1.31-2.15-1.12-2.53-2m1.48-3.65c.39.01.64.53,1.04.6.49.27.79-.3,1.25.15.22.19,1.1-.2.98.32-.37.89-1.44.53-2.2.59-.56-.09-.44-.91-.85-.85-.1.45.05.72.22,1.1-.24.05-.5.06-.77.01-.15-.77.08-1.24.32-1.93m7.88,1.04c-.62,0-1.13.65-1.74.57-.42-.31-.7-.78-1.1-1.12-.64-.07-1.06.35-1.66-.03-.56-.36-1.1-.17-1.75-.21-.77.13-1.08-.76-1.86-.74-.31.7-.45,1.31-.51,2.07-.3.15-.69-.11-1-.17-.1.64-.02,1.32-.06,1.97-.11.78.95,1.49.86,2.22-.77.04-1.53.36-2.23.65-.1.36-.08.7.05,1.02.38.19.93-.04,1.34-.07,1.02.1,2.08.2,3.11.14.47-.24.89-.89,1.38-.25.08.63.41,1.11.34,1.77.31-.03.55-.17.73-.41-.2-.67-.28-1.4-.24-2.1.37-1.02,1.74-1.5,2.66-1.88l.02-.24-.61-.03c.14-.19.26-.38.34-.56-.72-.16-1.01.84-1.5.89-.12-.96-.02-1.76.93-2.21.83-.18,1.6-.67,2.4-.87-.36.42-.72.74-.77,1.34-.08.53-.47.56-.92.59v.32l.51.07c-.11.14-.18.3-.22.47.8.15.89-1.38,1.09-1.85.27-.68.79-.65,1.4-.85-.13-.52-.56-.48-1-.51"></path>
      <polygon class="uuid-794800c0-4dca-4e4b-bc17-4a9a6898d7cc" points="64.27 52.5 64.47 52.43 64.52 52.64 64.29 52.71 64.27 52.5"></polygon>
      <path d="m62.22,53.9v.16c-.71.89-1.67,1.55-2.36,2.47-.26.25-.56.84-.96.78-.05-.4.36-.58.56-.91.72-.95,1.69-1.98,2.76-2.51"></path>
      <path class="uuid-794800c0-4dca-4e4b-bc17-4a9a6898d7cc" d="m30.5,55.33c.37.1,1.23.74,1.39,1.06-.42.04-1.18-.7-1.39-1.06"></path>
      <path d="m63.66,53.23c-.11-.4.1-.58.63-.52-.17.35-.38.52-.63.52m-12.38,6.32c.75-.17,1.93.32,2.44.78-.68.22-2.16-.14-2.44-.78m.55-2.56l-.04-.26.26-.03.04.25-.27.03Zm-4.85-2.54c.05-.27.18-.53.38-.77.23-.24,1.3-.3,1.1-.67-.43,0-.61-.08-.56-.26.42,0,.85.56,1.21.11.24-.26.87-.71,1.01-.12.01.69-1.14.93-1.61,1.25-.37.18-1.17.83-1.53.47m-2.01,3.9c-.26.05-.53.05-.82.01-.02-.27.18-.47.6-.58-.09-.36-.22-.35.03-.67.16.07.32.14.48.21.12-.55-.1-1.17.08-1.69.61-.43,1.31-.64,1.64.22-.26,1.11-1.13,1.86-2.01,2.5m-.97-.88c-.18.03-.3-.12-.38-.43-.51.14-1.42.12-1.73-.36.39-.85,1.23-1.89,2.24-1.98.36.07,1.25-.2,1.33.27-.39.41-.6.85-.84,1.34-.29.47-.91.48-.62,1.16m-1.67-5.35c.12-.19.27-.35.47-.5.13.03.27.05.41.08.08-.2.12-.43.13-.67.64-.07,1.55-.02,2.07.41.32.59.84,1.19,1.01,1.83.02.82-.72.19-.65,1.09-.76.1-1.65.01-2.32-.4-.51-.58-.5-1.31-1.11-1.85m5.84-1.07h.18c0,.37.31,1.69-.47,1.32-.19-.38.26-.9.29-1.32m-4.66,7.84c-.7.54-1.48.93-2.1,1.6-.53.5-1.09,1.08-1.81,1.25-.53.16-.93-.07-1.42-.22-.5,0-.95-.09-1.42-.21-.42-.04-.71.3-1.14.17.04-.14.22-.29.51-.45-1.69-.43-4.08-1.07-5.34-2.29,1.23-.45,2.74-.99,3.98-.32,1.61.43,3.47.21,5.11-.02,1.23-.07,2.42.26,3.66.28l-.03.22Zm-8.44,2.3c-.4.09-.57.02-.51-.2.37-.14.54-.08.51.2m-3.11-.24c.47-.1,1.26-.07,1.53.42-.35.05-1.54.12-1.53-.42m-2.21-1.79l-.02-.18c.46-.09,1.41.32,1.63.76-.53-.22-1.03-.49-1.61-.59m6.23-1c.32-.11.46-.05.41.18-.31.14-.45.08-.41-.18m-8.61,2.44c-.27.18-.88-.16-.81-.47.28-.13,1.03.07.81.47m-17.63-5.34c-.34.16-.91,0-1.29-.06.15-.48,1.42-.81,1.29.06m-1.36-1.11c.33-.05.48,0,.44.19-.37.16-.51.1-.44-.19m2.51-6.91c-.32.1-.96.18-1.17-.15-.9-.56,1.52-.36,1.17.15m1.44-7.32l-.2-.05c-1.02-1.52-2-3.03-2.54-4.8-.42-1.42-.99-2.8-1.38-4.22.54-1.4,1.8-2.26,1.96-3.93.28-.8.11-1.49,0-2.28.03-.44.36-1.06.67-1.38.18.5-.03,1.01.23,1.51.22.62.7.98,1.22,1.35.47.53.4,1.04.14,1.65-.46,1.92-.66,4.11-.75,6.07.13,1.24.39,2.32.66,3.54,0,.85.01,1.7,0,2.55m-3.11-2.46c-.71-.52-1.32-1.06-2.26-.95-.21-.08-.82-.24-.79-.51.83-.07,1.84.36,2.59.71.24.12.73.35.72.65l-.25.1Zm-1.29-7.93c0,.41-.12.56-.36.47-.41-.9-.35-1.8-.39-2.76-.14.04-.24.19-.3.45l-.18.04c-.07-.77-.07-1.52.17-2.26.14-.32.04-.96.38-1.13.35.09.47.22.79-.03.5-.47,1.29-.93,2-.81.11.37-.16.74-.2,1.12.03.86-.02,1.7-.07,2.56-.37,1-.86,1.9-1.48,2.76l-.22.02c-.05-.14-.09-.27-.14-.41m-1.15,1.14c.05.13.11.26.16.39-.65.34-1.29.64-1.98.91-.85.09-1.39-.38-2.25.02-.91-.31-1.26-1.46-2.21-1.5.02-.24.56-.43.77-.49.54.29,1.09.49,1.7.53.58-.17,1.16-.26,1.72-.5.92.04,1.72-.22,2.5.32.09.19-.05.3-.41.33m-2.09-1.19v.2c-.99.23-1.75.7-2.78.27l.04-.16c.88-.43,1.79-.74,2.74-.31m-3.17-2.61c-.17-.6.83-.83,1.19-1.12.65-.03,1.31.02,1.96,0,.44-.32.85-.35,1.37-.22.67.85.1,1.66.51,2.63.2.5.04,1,.18,1.52-.84.2-1.31-.26-2.01-.59-.59-.38-1.4-.26-2.03-.03-.87-.25-1.26-1.34-1.17-2.17m5.03-2.71c.14.26.16.57.05.94-.69.13-1.46.04-2.17.08.12-.79,1.33-1.46,2.12-1.02m4.96-1.21c.65-.23.95.96,1.45.87l-.04-.3c-.23-.19-.32-.38-.27-.58.57.18,1.01,1.07,1.13,1.65-.23-.16-.43-.27-.6-.34-.21.53.69,1.8.02,2.06-.47-.12-.89-.68-1.32-.95-.4-.57-.79-1.82-.37-2.41m5.58-5.93c.03,1.9-.89,3.48-2.18,4.81.17.36.12.66-.34.62.27-1.89,1.78-3.68,2.52-5.43m-2.23,3.06v.2s-.19.01-.19.01v-.2s.19-.02.19-.02Zm1.13-2.01l.02.21-.2.03v-.2s.18-.03.18-.03Zm2.33-3.12c.64-1.07,1.38-2.22,2.36-3.02.73-.26,1.38-.48,2.12-.74v-.17c-.36-.01-.53-.1-.49-.27.36-.11.74-.48,1.12-.33-.12.18-.22.35-.3.53.28-.05.54-.16.8-.33-.08-.16-.16-.33-.24-.49.28-.03.56.07.84.31-.52,1.35-1,3.04-2.21,3.95-.22.21-.53.54-.85.54-.12-.46.24-.89.14-1.39-.15-.45-.16-.85-.64-1.08.09.62,0,1.15-.35,1.68-.33.53-.19,1.01-.23,1.59-.43.86-1.06,1.46-1.79,2.07h-.25c-.05-.96-.03-1.91-.02-2.86m3.57-3.92c.06.26,0,.27-.16.02l.16-.02Zm2.05,4.23c-.07.45-1.31.63-1.69.5.03-.54,1.29-.58,1.69-.5m-2.76-1.71c.31-.07.4.1.26.49-.26.09-.35-.08-.26-.49m-5.68,18.97c-.45.13-1.76-.27-1.73-.81.51-.17,1.64.28,1.73.81m.07-4.41h.12c.2.26-.12,1.14-.48,1.02-.12-.46.21-.61.36-1.02m2.26,5.05c.29-.33.52-.51.02-.8.22.09.43.1.62.05.24-.63.66-.45.69.14-.2,1.21-.59,2.28-1.19,3.36l-.2.04c-.02-.93-.64-1.96.07-2.78m-1.5,3.91l-.03-.23h.25s.02.22.02.22h-.24Zm-.8-.06c-.58-.3-1.27-.75-1.67-1.25.64-.02,1.91.39,2.18.99-.18.16-.35.25-.51.26m2.99,4.08c.03.2.24,1.42-.14,1.31-.08-.23-.32-1.42.14-1.31m2.96-1.1c.46-.25,1.1-.67,1.63-.6l.02.22c-.53.39-.99.73-1.69.6l.03-.22Zm49.4,7.79c.15-.13.3-.26.43-.4-.38-.14-.85.22-1.18.39-1.56.82-3.57,1.84-4.6,3.32.05.15.09.3.14.44-.34.24-.72,1.05-.91.19-.64.54-1.31.98-1.85,1.63.07.14.14.28.2.43-1.29,1.27-2.69,2.48-3.92,3.79-.37.09-.51.42-.83.49-.04-.35-.24-.47-.6-.37-1.06.12-2.29.22-3.34.07-.31-.47-.52-2.12-1.24-2.03-.02.52.41.76.56,1.21-.3-.02-.42-.5-.61-.71-.32-.58-.83-.86-1.33-1.25v-.26c.75-.08.91,1,1.45.93-.02-1-1.42-1.38-2.24-1.46-.27.39.23.61.42.88.34.51,1.27.7,1.21,1.38l-.26.03c-1.3-.86-3.01-1.21-4.52-1.56.38-.72,1.65-.74,2.23-1.35.21-.24.67-.49.76-.78-.58-.93-1.24-.56-2.15-.66-.14-.67.21-1.46-.32-1.96-.51-.6-.7-1.46-1.64-1.37-.25.32-.45.61-.31,1.03l.18-.03c.16-.49.3-.61.79-.36.78.82.43,1.95-.02,2.84-.19.3-.06,1.35-.64,1.04-.03-.69-.58-1.06-.74-1.72-.23-.5.14-.92.28-1.39-.65-.32-.28.49-.74.64-.81-.15-1.61-.09-2.41-.24-.42.26-.49.97-.99,1-.26.03-.46.12-.61.27.1.52.98.83,1.12,1.44.1.44.37.74.61,1.11-.1.32-.55.39-.73.68-.53.59-.67,1.29-1.43,1.67l-.03.16c.85.45,1.87.58,2.7,1.08-2.1.23-4.33.06-6.45.09-.86-.28-1.57-.45-2.43-.05.06-.15.12-.31.19-.46-.9-.03-1.53-.51-2.3-.89-.47-.23-.81-.64-.95-1.14.12-.99.29-2.2-.16-3.12-.11-.58.16-1.31-.11-1.83.49.08.75-1.23.66-1.6-.22.06-.44.12-.66.17,0,.09,0,.2.02.33-.4.45-.53.96-.7,1.52.16.3.23.59.19.88-.16-.12-.33-.22-.51-.3-.56.77-.25,1.98-.32,2.9h.29c.02-.75-.06-1.54.04-2.28h.21c.08.72-.02,1.46.07,2.16h.21c.07-.63,0-1.29.04-1.94l.22.02c.26.77.44,1.46.29,2.28-.3.08-.68.36-.87-.04-.12.01-.26.09-.44.23-1.14-.65-2.15-.97-2.65-2.32-.26,0-.5.15-.71.43.27,1.08,1.84,1.44,2.61,2.07.66.59,1.35,1.12,2.05,1.65l.05.21c-.84,0-1.67,0-2.51.08-.14.5.89.15,1.13.21v.27c-.29.06-1.32-.33-1.15.27,1.04.26,1.76-.42,2.81-.24v.23c-.94.23-1.88.49-2.83.18-.64-.24-.9.18-1.46.35-.56.13-1.07.24-1.63.05-.04-.29.62-.39.83-.52.64-.32,1.26-.31,1.95-.36.2-.58-.86-.18-1.12-.22-.47-.09-.76-.43-1.27-.29.08.18.19.35.32.52-.51-.04-.91-.58-1.43-.66.14-.09.22-.22.23-.39-1.89-.64-3.7-1.34-5.26-2.63-.27.2-1.04.25-1.05-.16l.6.07-.06-.36c-.91-.68-2.22-1.47-2.56-2.61.35-2.59.49-5.02,1.62-7.41.51-1.54,1.52-2.63,3.19-2.79.89-.01,1.64-.94,2.27-1.46.12-.09.19-.23.22-.4-1.28.23-2.75.68-3.9,1.28.29-.53.3-.76.33-1.36.32-.09.24.53.39.72.09-.37.17-.74.31-1.1.2-.56-.11-1.06-.24-1.62-.4-.1-.44.54-.49.8,0,.52-.23.93-.3,1.42.01,1.07-.76,2.13-1.44,2.91l-.23-.02c.07-1.03-.36-1.95-.32-2.97h-.28c-.09.79.05,1.67-.38,2.33.13.91.17,1.93.05,2.84-.29.78-.47,1.6-.68,2.4-.23.24-.37.2-.41-.12-.26-.83-.68-1.6-1-2.41-.22-.51-.61-.81-1.15-.92.05.33.28.52.51.74.58.32-.1,1.76.45,1.95.06-.26.1-.52.12-.79.31-.04.37.65.53.85.32.8.66,1.71.55,2.58l-.22-.02c-.19-.66-.45-1.69-.84-2.21.11,1.52.99,3.16.98,4.68-.75-.59-1.24-1.54-1.9-2.25-.59.09-.76-.28-.87-.79.43-.65-.2-1.01-.29-1.68-.96-2.3-.33-5.15-.61-7.65h-.2c-.19,1.06.02,2.21-.09,3.28l-.12-.03c-.04-.99-.03-2.01,0-3,.02-.49.29-.96.14-1.41-.43-1.59-.07-3.18-.39-4.8-.22-1.06-.19-2.13.19-3.15.2-.47.21-1.18.55-1.53l.2.09c.47,1.23.63,2.45,1.36,3.6-.62.1-1.23.09-1.85.12-.11.45.3.57.57.8.58.45,1.19.66,1.92.65.19.2.26.93.59.83l.11-.52.13.03c.18.71.63,1.21.87,1.9-.12.17-.22.35-.31.54.26.31.38.62.36.93-.93-.12-1.73-1.22-2.83-1.21-.46,0-.68-.47-1.13-.28-.13.39.23.71.4,1.04.79.69,1.71,1.44,2.74,1.71.5.24.97-.05,1.35.43.06.73.08,1.48.1,2.22.57.14.08-1.39.32-1.7.43-.96-.05-1.84.27-2.8.45-.81.77-1.7,1.06-2.58.05-.94.16-1.98.57-2.83-.09-.41-.56-.06-.74.09-.43.3-.55.96-1.02,1.12-.28-.45.15-.95.14-1.48.61-1.27.85-2.61,1.85-3.51.09-.32.24-1.37-.37-1.21-.41.58-.82,1.09-.72,1.85-.37,1.18-1,2.24-1.4,3.4.05.96-.2,1.94-.63,2.8h-.17c-.42-.89-1.05-1.57-1.64-2.34-.17-.34-.16-.92-.07-1.28.24-.43.82-.92.81-1.43-.03-.44.08-.95-.07-1.36-.74.23-.93,1.42-1.34,1.96-.32.03-.45-.66-.58-.9-.32-.68-.38-1.5-.2-2.21.42-.66.03-1.32.35-2,.22-.74.99-1.23,1.43-1.86.48-.67,1.25-1.23,1.57-1.98l-.45-.04c.52-.74,1.28-1.61,2.08-2.03-.27.7-1.6,1.2-1.71,1.97.41.02.58-.41.95-.56.57-.24,1.02-.4,1.66-.36,1.26-.41,2.64-.98,3.94-1.19.32-.17,1.25-.44.75-.93-.54-.01-1.05.07-1.58-.06-.76-.18-1.66.16-2.33.51v.29c.49.15.71-.37,1.19-.31.66-.04,1.28-.08,1.93.03v.19c-1.22.31-2.68.27-3.77.81.09-.17.16-.35.22-.54l-.53-.08c.86-.57,1.15-1.48,2.16-1.81.56-.04,1.12,0,1.68-.03.49-.25,1.69-.75,1.68-1.37-.62-.21-1.42.28-1.94,0-.07-.69,1.47-.37,1.21-.99l-.52-.04c.61-.23.31-.67.61-1.14.47-.97.46-2.5,1.37-3.14.92-.35,1.88-.55,2.75-1.02l.02-.29c-.29-.13-.57-.21-.85-.24-.36.44-1.19.85-1.73.82.1-.75,1.71-.78,1.65-1.4-.41.06-.65.41-1.09.3.06-.41.66-.72.91-1.05.81-.33,1.86-.62,2.73-.93.13.6-1.33.66-1.13,1.16l.45.09c-.07.38-.86.67-.81,1.13.55.05,1.03-.41,1.61-.42-.05-.16-.13-.3-.26-.41h.6c-.08-.25-.23-.49-.47-.71.31-.47.88-1.11.85-1.68-.47.03-.91.62-1.36.52.04-.3.46-.46.64-.7.6-.57.95-1.32,1.56-1.9,0-.22-.06-.44-.17-.66.14.11.29.19.45.25.09-.38.28-.78.27-1.17-1.06.11-1.1,1.11-1.44,1.9-.73,1.29-1.92,2.33-3.25,2.98-.58.29-1.07.83-1.54,1.28-.64.59-.92,1.82-1.72,2.25-.77.56-1.74.63-2.57,1.12-.72.25-1.67,1.33-2.43,1.15-.16-.45.02-1.02.03-1.48-.58-.12-.37.62-.58,1-.1.55.03,1.1-.1,1.65h-.22c-.18-.9-.6-1.84-1.23-2.49-.46-.16-.87-.41-1.33-.56-.2.18.5,1.29.71,1.29.18-1.07.79.13,1.18.36-.17.59-.59.1-.99.09.38,1.02,1.62,1.16,1.29,2.44-.18-.18-.36-.29-.55-.32-.17.52,0,1-.29,1.48-.67,1.1-1.78,2.26-2.24,3.44h.51c-.18.37-.44.7-.59,1.07-.16-.08-.31-.15-.47-.22-.46,1.02-.7,2.34-.93,3.45l-.24.11c-.37-.33-.69-.86-1.14-1.06-.49.5-.79.2-1.32.4-.11.88-.77.2-1.35.65-.66.19-1.27.47-1.88.77-.79-.04-1.53.02-2.25-.36-.89.33-1.25,1.23-1.68,1.9-1.15-.21-2.04.28-3.03.78.2.65.05,1.28.39,1.88.1.4.75.93.58,1.33-.57.31-1.7.35-1.81,1.1.15.42.51.36.86.52.5.28.76.77,1.22,1.1,0,.12-.03.24-.06.36.98-.35,2.2-.09,3.23-.16.66-.26,1.3-.63,1.97-.86.78.6,1.21,2,1.65,2.87.16.7.46,1.28.33,2.01-.37.09-.8-.15-1.14-.3-.91-.26-1.88-.68-2.8-.88-.32.49.51,1.1.85,1.36.79.47,1.65.87,2.48,1.28.55.31,1.1.1,1.67.26,1.07,2.01,2.07,3.92,2.64,6.16-.14,1.08.51,2.4.32,3.4-.82.31-1.37-.75-1.45-1.4-.38-.71-.46-1.44-.57-2.27.24.1.48.17.73.2-.15-.51-.53-.91-.93-1.25-.28.63.14,1.48-.11,2.15-.31.02-.41-.57-.58-.78-.5-.67-.95-1.36-1.28-2.12-.13-.51-.27-1.1-.58-1.54-.05.5.17.96.13,1.46.21.4.46.89.63,1.31-.7.14-1.33-.36-1.99-.28.21.72,1.23,1.31,2,1.14,1.06.07,1.6,1.39,1.97,2.24-.8.11-1.69-.1-2.49.06.12.48.7.85,1.1,1.09.82.11,1.88-.25,2.57.24.51.16,1.26.24,1.58.71,1.13,1.57,2.65,2.86,3.96,4.28.34.52.68,1,1.24,1.31.56.48,1.99.8,2.31,1.4-1.23.12-2.53-.61-3.35-1.49-.33-.34-.48-.42-.96-.45-.1-.58-.57-.85-1.11-.91-.53-.04-1.14-.31-1.64-.18.07.53.83.87,1.1,1.35h.32c-.12-.28-.23-.56-.33-.84.53-.12.91.18,1.4.32-.01.37-.7.37-.76.75.32.43,1.77.41,1.85.86-1.62.09-3.14,0-4.73-.32-.37-.2-.75-.44-1.11-.63-.65.1-1.3.13-1.95.21.03.31,1.24.13,1.54.23-.22.8-1.87.21-2.41-.13-.24-.49-.6-.66-.89-.99.73-.03,1.49-.08,2.22-.05.44.05.69.58,1.12.58-.07-.83-1.59-1.14-2.29-.94-.47.2-1.48-.18-1.7.37.24.52.37.32,0,.85.09.2.22.39.39.57-.14.28-.27.55-.38.82,1.49.43,3.01.37,4.29-.56.82-.08,1.49.12,2.27.29.99-.08,2.07.42,3,.12-.51.27-.26.77-.66,1.09-.28.29-.82.8-1.23.58.02-.49.83-.71.84-1.19-.5.07-.98.65-1.18,1.1-.13-.03-.26-.05-.39-.08-.25.25-.25.55-.31.88,1.46-.03,2.47-.83,3.47-1.81.85-.86,2.05-.19,3.02.04.86.3,1.6-.11,2.43.24.9.38,1.67,1.07,2.59,1.39.02.26-.49.42-.66.59,0,.14.07.28.19.41.72.16,1.3.53,2.03.16.48-.25.88.2,1.32-.24l.12.03c-.03.25.02.45.14.61.73.35,1.47.8,2.27.98.06.23-.16.36-.68.41-.12.49.99.47.96.94-.42.32-1.09,0-1.58-.07-1.06-.57-2.2-.82-2.93-1.88.56,0,1.07-.08,1.62-.16.16-.52-.39-.47-.72-.37-1.68.39-3.44.11-5.14.49-1.13.18-1.83-.24-2.84-.58-.42.23-1.89.16-1.72.84,1.35.51,2.61.31,3.99.05,1.04-.01,2.08-.01,3.12,0,.52.33.86.83,1.42,1.13v.22c-.89.01-1.69.2-2.55.32-.97,0-1.31.94-2.26.9-.21-.01-.27.12-.17.4.68.06.78-.16,1.24-.59.74-.12,1.23-.54,2.03-.37-.04.83-1.38,1.22-1.59,1.85.37-.07.5-.11.89-.12.23-.47.87-.44,1.19-.81l-.46-.13c-.07-.31.41-.57.59-.78.96.22,2.05-.93,3.03-.54.31.19.65.29.94.5l-.03.2c-.66.09-1.69,1.1-1.93,1.68,1.01-.32,1.14-1.53,2.48-1.32l-.06.2c-.66.49-.95,1.6-1.91,1.49-.31.07-1.25-.38-1.12.25.79.26,1.52.2,2.22-.29.43-.86,1.31-1.34,2.11-1.85,1.77-.38,3.49-.56,5.3-.29.54.19,1.09.18,1.64.29-.55.64-1.77.69-2.2,1.46,1.48,0,2.92-2.01,4.52-1.02,1.35-.31,2.42.87,3.71.04l-.05-.24c-.55-.03-1.09-.26-1.63-.22-.39-.2-.7-.39-1.14-.46-.14-.44.09-.71.31-1.06.96-1.08,2.08-1.46,3.2-2.2,1.49-.32,2.91-.07,4.41-.15v-.23c-1.06-.2-2.25.05-3.3-.07v-.14c1.39.02,2.77-.01,4.16.04.88-.07,1.66.28,2.55.11v-.28c-1.79-.29-3.57-.23-5.39-.23-.23-.03-.45-.12-.66-.26.02-.73.56-1.15.4-1.98,1.41.17,3.06.83,4.25,1.67.49.21.48.83,1.12.56-.07-.16-.16-.32-.28-.47.15-.08.3-.17.43-.29-.22.9.94.46.99,1.02-.42.01-.61.11-.57.28.95-.06,1.56.55,2.55.33.72-.28,1.41-.12,2.16-.19-.35.47-.49,1.06-.81,1.56-.27.62-.96,1.03-1.6,1.1-.97-.47-1.7-1.19-2.79-1.43-.75-.41-1.46-.52-2.31-.43-.41.54.85,1,1.15,1.33.95.4,2.01.74,3.01.98.06.25-.02.4-.22.45-.71.32-1.31.82-1.98,1.18-.6-.22-.94-.91-1.7-.9-.6-.05-1.02-.39-1.6-.15.18.39.72.59,1.06.85.27-.14.53-.26.79-.34.25.19.8.43.83.77-.42-.09-.92-.72-1.18-.07l-.28.15v.26s.6.08.6.08c-.12.11-.29.18-.52.21.07.16.15.32.22.48-.83.65-2.03,1.01-3.08.9.48-.79,1.63-1.47,2.58-1.45l.02-.28c-1.09.03-2.15.02-3.2.36,0,.21.2.33.62.34l.1.19c-.19.55-1.29.64-1.25,1.15.8,0,1.63-.06,2.42.08.48-.34,1.04-.42,1.57-.68,1.29-.74,2.84-2.21,4.17-2.68.18.37.49.43.83.57-.77-.12-.61.44-.42.93.17-.07.34-.15.51-.23.03.65-.48,1.99-1.09,2.26-.14-.68.43-1.21.36-1.95.02-.45-.09-.63-.33-.56.01,1.2-.51,2.17-.33,3.39.06.15.19.2.39.14.2-.54.47-1.04.65-1.58,1.17-1.08.41-2.32.67-3.67.63-.49,1.3-.95,1.79-1.6,1.06-1.78,3.08-3.08,4.54-4.55,1.77-1.74,3.66-3.32,5.46-5.03,1.19-.88,2.59-1.44,3.85-2.18.09-.21-.09-.33-.53-.36"></path>
      <path d="m47.57,63.25v.24c-.51-.03-.96.32-1.46.26.08-.16.16-.33.24-.5-.39,0-.7.27-1.09.22.06-.16.12-.32.17-.47-.32.06-1.36.56-1.29-.06.99-.75,2.32.17,3.43.32"></path>
      <path d="m36.11,63c-.1.59-.78.36-.73.74.41,0,.58.1.53.32-.43.06-1.02.25-1.41.03.05-.49,1.13-1.01,1.61-1.08"></path>
      <path d="m39.75,65.08c-.36.42-.84,1.16-1.48.92.13-.59.4-2.01,1.03-2.19l.06.5c.41-.03.63-.74,1.05-.77.2.68-.34,1-.66,1.54m1.05-2.3l-.27-.16c-.28.18-.58.32-.91.39-1.32.54-1.47,2.29-1.86,3.5.51,0,.99-.16,1.49-.18-.16,1.54,1.94-.46.86-.87.08-1.04.16-.14.6-.12.3-.91.08-1.67.09-2.55"></path>
      <path d="m50.09,64.3c-.3.12-.56.13-.79.01-.16-.33.97-.44.79-.01"></path>
    </g>
  </g>
</svg>
