<?xml version="1.0" encoding="UTF-8"?>
<svg xmlns="http://www.w3.org/2000/svg" width="31" height="29" viewBox="0 0 31 29" fill="none">
  <path d="M19.1931 0C13.1731 0 8.28922 4.60479 8.28922 10.2807C8.28922 12.1304 8.81625 13.8586 9.71807 15.3604L0.114258 24.4153L1.4787 26.9828L4.20174 28.2692L13.8056 19.2143C15.3925 20.0701 17.2313 20.5615 19.1931 20.5615C25.213 20.5615 30.0969 15.9567 30.0969 10.2807C30.0969 4.60479 25.213 0 19.1931 0ZM19.1931 17.348C15.0529 17.348 11.6974 14.1843 11.6974 10.2807C11.6974 6.37714 15.0529 3.21342 19.1931 3.21342C23.3332 3.21342 26.6887 6.37714 26.6887 10.2807C26.6887 14.1843 23.3332 17.348 19.1931 17.348Z" fill="white"></path>
</svg>
