<?xml version="1.0" encoding="UTF-8"?>
<svg xmlns="http://www.w3.org/2000/svg" width="32" height="31" viewBox="0 0 32 31" fill="none">
  <path d="M8.08333 28.4173C7.37292 28.4173 6.76497 28.1646 6.2595 27.6591C5.75317 27.1528 5.5 26.5444 5.5 25.834V10.334C5.5 9.62357 5.75317 9.01563 6.2595 8.51016C6.76497 8.00382 7.37292 7.75065 8.08333 7.75065H10.6667C10.6667 6.32982 11.1726 5.1135 12.1844 4.10169C13.1962 3.08989 14.4125 2.58398 15.8333 2.58398C17.2542 2.58398 18.4705 3.08989 19.4823 4.10169C20.4941 5.1135 21 6.32982 21 7.75065H23.5833C24.2937 7.75065 24.9021 8.00382 25.4085 8.51016C25.9139 9.01563 26.1667 9.62357 26.1667 10.334V25.834C26.1667 26.5444 25.9139 27.1528 25.4085 27.6591C24.9021 28.1646 24.2937 28.4173 23.5833 28.4173H8.08333ZM11.9583 14.209C12.3243 14.209 12.6313 14.085 12.8793 13.837C13.1264 13.5899 13.25 13.2833 13.25 12.9173V10.334H10.6667V12.9173C10.6667 13.2833 10.7907 13.5899 11.0387 13.837C11.2858 14.085 11.5924 14.209 11.9583 14.209ZM13.25 7.75065H18.4167C18.4167 7.04024 18.1639 6.43229 17.6585 5.92682C17.1521 5.42049 16.5437 5.16732 15.8333 5.16732C15.1229 5.16732 14.515 5.42049 14.0095 5.92682C13.5032 6.43229 13.25 7.04024 13.25 7.75065ZM19.7083 14.209C20.0743 14.209 20.3813 14.085 20.6293 13.837C20.8764 13.5899 21 13.2833 21 12.9173V10.334H18.4167V12.9173C18.4167 13.2833 18.5407 13.5899 18.7887 13.837C19.0358 14.085 19.3424 14.209 19.7083 14.209Z" fill="white"></path>
</svg>
